<?xml version="1.0" encoding="iso-8859-1"?>
<!-- Uploaded to: SVG Repo, www.svgrepo.com, Generator: SVG Repo Mixer Tools -->
<svg height="800px" width="800px" version="1.1" id="Layer_1" xmlns="http://www.w3.org/2000/svg" xmlns:xlink="http://www.w3.org/1999/xlink" 
	 viewBox="0 0 512 512" xml:space="preserve">
<polygon style="fill:#FFFFFF;" points="58,397.152 58,114.856 256,9.072 454,114.856 454,397.152 256,502.928 "/>
<path style="fill:#FF8A73;" d="M256,18.144l190,101.512V392.36L256,493.856L66,392.352V119.648L256,18.144 M256,0L50,110.056
	v291.888L256,512l206-110.056V110.056L256,0L256,0z"/>
<circle style="fill:#FF8A73;" cx="256" cy="172.52" r="59.656"/>
<path style="fill:#FF8A73;" d="M358.896,364.424c0,0,0,2.784,0-52.8s-60.664-56.6-60.664-56.6h-84.464c0,0-60.664,0.68-60.664,56.6
	c0,55.584,0,52.8,0,52.8H358.896z"/>
</svg>